<?xml version="1.0" encoding="UTF-8" standalone="no"?>
<svg
   xmlns:dc="http://purl.org/dc/elements/1.1/"
   xmlns:cc="http://creativecommons.org/ns#"
   xmlns:rdf="http://www.w3.org/1999/02/22-rdf-syntax-ns#"
   xmlns:svg="http://www.w3.org/2000/svg"
   xmlns="http://www.w3.org/2000/svg"
   xmlns:sodipodi="http://sodipodi.sourceforge.net/DTD/sodipodi-0.dtd"
   xmlns:inkscape="http://www.inkscape.org/namespaces/inkscape"
   version="1.0"
   width="228.000000pt"
   height="122.000000pt"
   viewBox="0 0 228.000000 122.000000"
   preserveAspectRatio="xMidYMid meet"
   id="svg2"
   inkscape:version="0.48.4 r9939"
   sodipodi:docname="cn.svg">
  <defs
     id="defs14" />
  <sodipodi:namedview
     pagecolor="#ffffff"
     bordercolor="#666666"
     borderopacity="1"
     objecttolerance="10"
     gridtolerance="10"
     guidetolerance="10"
     inkscape:pageopacity="0"
     inkscape:pageshadow="2"
     inkscape:window-width="1623"
     inkscape:window-height="1026"
     id="namedview12"
     showgrid="false"
     inkscape:zoom="1.1508772"
     inkscape:cx="-10.426829"
     inkscape:cy="76.25"
     inkscape:window-x="57"
     inkscape:window-y="24"
     inkscape:window-maximized="1"
     inkscape:current-layer="svg2" />
  <metadata
     id="metadata4">
Created by potrace 1.13, written by Peter Selinger 2001-2015
<rdf:RDF>
  <cc:Work
     rdf:about="">
    <dc:format>image/svg+xml</dc:format>
    <dc:type
       rdf:resource="http://purl.org/dc/dcmitype/StillImage" />
  </cc:Work>
</rdf:RDF>
</metadata>
  <g
     transform="translate(0.000000,122.000000) scale(0.100000,-0.100000)"
     fill="#000000"
     stroke="none"
     id="g6"
     style="fill:#444444;fill-opacity:1">
    <path
       d="M278 866 c-60 -22 -125 -64 -158 -103 -163 -198 -89 -484 148 -574 80 -29 194 -24 273 13 52 24 140 97 138 116 0 4 -25 27 -55 51 l-56 43 -31 -30 c-126 -122 -326 -52 -344 120 -13 129 72 228 197 228 58 0 100 -18 147 -63 l32 -30 56 47 c63 54 63 62 -6 116 -66 53 -143 80 -229 79 -41 0 -91 -6 -112 -13z"
       id="path8"
       style="fill:#444444;fill-opacity:1" />
    <path
       d="M972 528 l3 -353 78 -3 77 -3 0 236 c0 129 2 235 4 235 2 0 244 -104 538 -231 293 -127 539 -233 546 -236 9 -4 12 70 12 351 l0 357 -77 -3 -78 -3 -5 -231 -5 -231 -527 227 c-289 126 -536 231 -547 235 l-21 6 2 -353z"
       id="path10"
       style="fill:#444444;fill-opacity:1" />
  </g>
</svg>
