<?xml version="1.0" encoding="UTF-8" standalone="no"?>
<!-- Generator: Adobe Illustrator 16.0.0, SVG Export Plug-In . SVG Version: 6.00 Build 0)  -->

<svg
   xmlns:dc="http://purl.org/dc/elements/1.1/"
   xmlns:cc="http://creativecommons.org/ns#"
   xmlns:rdf="http://www.w3.org/1999/02/22-rdf-syntax-ns#"
   xmlns:svg="http://www.w3.org/2000/svg"
   xmlns="http://www.w3.org/2000/svg"
   xmlns:sodipodi="http://sodipodi.sourceforge.net/DTD/sodipodi-0.dtd"
   xmlns:inkscape="http://www.inkscape.org/namespaces/inkscape"
   version="1.1"
   id="Layer_1"
   x="0px"
   y="0px"
   width="728.66302"
   height="149.832"
   viewBox="0 0 728.663 149.832"
   enable-background="new 0 0 807.879 288.587"
   xml:space="preserve"
   inkscape:version="0.48.4 r9939"
   sodipodi:docname="cn_logo.svg"><metadata
     id="metadata35"><rdf:RDF><cc:Work
         rdf:about=""><dc:format>image/svg+xml</dc:format><dc:type
           rdf:resource="http://purl.org/dc/dcmitype/StillImage" /></cc:Work></rdf:RDF></metadata><defs
     id="defs33" /><sodipodi:namedview
     pagecolor="#ffffff"
     bordercolor="#666666"
     borderopacity="1"
     objecttolerance="10"
     gridtolerance="10"
     guidetolerance="10"
     inkscape:pageopacity="0"
     inkscape:pageshadow="2"
     inkscape:window-width="1623"
     inkscape:window-height="1026"
     id="namedview31"
     showgrid="false"
     fit-margin-top="10"
     fit-margin-left="10"
     fit-margin-right="10"
     fit-margin-bottom="10"
     inkscape:zoom="0.40600138"
     inkscape:cx="317.4395"
     inkscape:cy="6.9054999"
     inkscape:window-x="57"
     inkscape:window-y="24"
     inkscape:window-maximized="1"
     inkscape:current-layer="Layer_1" /><g
     id="g3"
     transform="translate(-38.300011,-75.011)"><path
       d="m 595.646,112.515 c 1.589,-1.389 3.975,-2.186 6.03,-2.186 1.724,0 3.579,0.332 5.103,1.127 v -10.404 c -1.26,-0.4 -2.52,-0.531 -3.577,-0.531 -3.247,0 -5.702,1.129 -7.556,3.447 v -2.916 h -10.008 v 33.139 h 10.008 v -21.676 z"
       id="path5"
       inkscape:connector-curvature="0" /><path
       d="m 625.868,134.72 c 2.718,0 5.371,-0.928 7.291,-2.52 v 1.99 h 10.01 v -33.139 h -10.01 v 1.988 c -1.92,-1.59 -4.573,-2.52 -7.291,-2.52 -9.812,0 -16.039,8.021 -16.039,17.102 0,9.079 6.228,17.099 16.039,17.099 z m 1.656,-25.053 c 2.451,0 4.311,0.994 5.635,2.783 v 10.34 c -1.324,1.791 -3.184,2.785 -5.635,2.785 -4.771,0 -7.62,-3.58 -7.62,-7.953 0,-4.377 2.849,-7.955 7.62,-7.955 z"
       id="path7"
       inkscape:connector-curvature="0" /><polygon
       points="615.923,180.578 604.729,180.578 598.495,190.056 592.268,180.578 580.666,180.578 592.001,197.017 580.07,213.72 591.667,213.72 598.495,203.776 605.324,213.72 616.926,213.72 604.992,197.017 616.03,181.008 "
       id="polygon9" /><path
       d="m 622.419,189.327 v 14.186 c 0,6.293 3.914,10.207 10.142,10.207 h 9.146 v -9.147 h -5.435 c -2.715,0 -3.843,-1.128 -3.843,-3.911 v -11.334 h 8.286 l 2.186,-8.749 h -10.472 v -9.94 l -10.01,4.971 v 4.97 h -6.094 l -0.295,0.43 2.077,8.319 h 4.312 z"
       id="path11"
       inkscape:connector-curvature="0" /><polygon
       points="684.653,101.052 673.124,101.052 665.366,115.5 657.614,101.052 646.079,101.052 665.366,134.72 "
       id="polygon13" /><path
       d="m 113.219,214.843 c 21.819,0 41.312,-10.912 53.113,-27.546 l -21.636,-17.704 c -6.438,10.377 -17.889,17.704 -31.478,17.704 -20.564,0 -36.125,-16.987 -36.125,-37.37 0,-20.387 15.561,-37.383 36.125,-37.383 13.589,0 25.039,7.336 31.478,17.712 l 21.636,-17.712 C 154.53,95.923 135.038,85.011 113.219,85.011 c -35.765,0 -64.919,29.146 -64.919,64.916 0,35.763 29.154,64.916 64.919,64.916 z"
       id="path15"
       inkscape:connector-curvature="0" /><polygon
       points="540.108,166.659 529.506,166.659 529.506,191.252 499.81,166.13 499.81,213.72 510.415,213.72 510.415,189.128 540.108,214.249 "
       id="polygon17" /><path
       d="m 742.512,100.521 c -2.917,0 -5.635,0.93 -7.62,2.52 v -1.988 h -10.01 v 33.139 h 10.01 v -21.676 c 1.655,-1.854 4.043,-2.848 5.963,-2.848 4.377,0 6.098,3.379 6.098,7.822 v 16.701 h 10.01 V 115.7 c -10e-4,-8.95 -5.106,-15.179 -14.451,-15.179 z"
       id="path19"
       inkscape:connector-curvature="0" /><path
       d="m 699.765,134.72 c 2.718,0 5.369,-0.928 7.291,-2.52 v 1.99 h 10.007 v -33.139 h -10.007 v 1.988 c -1.922,-1.59 -4.573,-2.52 -7.291,-2.52 -9.809,0 -16.039,8.021 -16.039,17.102 0,9.079 6.23,17.099 16.039,17.099 z m 1.656,-25.053 c 2.455,0 4.309,0.994 5.635,2.783 v 10.34 c -1.326,1.791 -3.18,2.785 -5.635,2.785 -4.769,0 -7.62,-3.58 -7.62,-7.953 0,-4.377 2.851,-7.955 7.62,-7.955 z"
       id="path21"
       inkscape:connector-curvature="0" /><path
       d="m 560.52,134.72 c 2.72,0 5.368,-0.928 7.292,-2.52 v 1.99 h 10.01 v -33.139 h -10.01 v 1.988 c -1.924,-1.59 -4.572,-2.52 -7.292,-2.52 -9.81,0 -16.038,8.021 -16.038,17.102 -10e-4,9.079 6.228,17.099 16.038,17.099 z m 1.66,-25.053 c 2.448,0 4.307,0.994 5.632,2.783 v 10.34 c -1.325,1.791 -3.184,2.785 -5.632,2.785 -4.773,0 -7.624,-3.58 -7.624,-7.953 0,-4.377 2.85,-7.955 7.624,-7.955 z"
       id="path23"
       inkscape:connector-curvature="0" /><polygon
       points="218.47,213.411 247.086,213.411 247.125,129.021 445.485,214.843 445.485,86.442 416.874,86.442 416.877,170.845 218.47,85.011 "
       id="polygon25" /><path
       d="m 521.685,134.72 c 8.086,0 15.31,-4.043 19.685,-10.207 l -8.021,-6.562 c -2.387,3.845 -6.625,6.562 -11.664,6.562 -7.625,0 -13.389,-6.297 -13.389,-13.852 0,-7.555 5.764,-13.85 13.389,-13.85 5.039,0 9.277,2.715 11.664,6.56 l 8.021,-6.56 c -4.375,-6.165 -11.599,-10.209 -19.685,-10.209 -13.255,0 -24.061,10.805 -24.061,24.059 0,13.254 10.806,24.059 24.061,24.059 z"
       id="path27"
       inkscape:connector-curvature="0" /><path
       d="m 563.635,180.048 c -10.21,0 -17.1,7.357 -17.1,17.103 0,10.205 8.154,17.099 16.904,17.099 6.56,0 11.924,-3.184 14.978,-7.953 l -7.953,-5.367 c -1.328,2.451 -3.58,4.172 -7.094,4.172 -2.98,0 -6.695,-1.721 -7.224,-6.163 h 23.263 c 0.134,-0.991 0.201,-1.985 0.201,-2.917 0,-10.47 -7.555,-15.974 -15.975,-15.974 z m -7.357,13.059 c 0.928,-3.979 4.371,-5.039 6.761,-5.039 3.115,0 5.967,1.392 6.628,4.639 l 0.068,0.4 h -13.457 z"
       id="path29"
       inkscape:connector-curvature="0" /></g></svg>