<?xml version="1.0" encoding="utf-8"?>
<!-- Generator: Adobe Illustrator 16.0.0, SVG Export Plug-In . SVG Version: 6.00 Build 0)  -->
<!DOCTYPE svg PUBLIC "-//W3C//DTD SVG 1.1//EN" "http://www.w3.org/Graphics/SVG/1.1/DTD/svg11.dtd">
<svg version="1.1" id="Layer_1" xmlns="http://www.w3.org/2000/svg" xmlns:xlink="http://www.w3.org/1999/xlink" x="0px" y="0px"
	 width="200px" height="200px" viewBox="0 0 200 200" enable-background="new 0 0 200 200" xml:space="preserve">
<linearGradient id="SVGID_1_" gradientUnits="userSpaceOnUse" x1="14.0068" y1="13.5947" x2="185.9932" y2="13.5947">
	<stop  offset="0" style="stop-color:#A43788"/>
	<stop  offset="1" style="stop-color:#3B286B"/>
</linearGradient>
<rect x="14.007" y="11.003" fill="url(#SVGID_1_)" width="171.986" height="5.182"/>
<linearGradient id="SVGID_2_" gradientUnits="userSpaceOnUse" x1="14.0068" y1="185.4033" x2="185.9932" y2="185.4033">
	<stop  offset="0" style="stop-color:#A43788"/>
	<stop  offset="1" style="stop-color:#3B286B"/>
</linearGradient>
<rect x="14.007" y="182.812" fill="url(#SVGID_2_)" width="171.986" height="5.182"/>
<linearGradient id="SVGID_3_" gradientUnits="userSpaceOnUse" x1="49.25" y1="89.165" x2="88.3838" y2="89.165">
	<stop  offset="0" style="stop-color:#A43788"/>
	<stop  offset="1" style="stop-color:#3B286B"/>
</linearGradient>
<circle fill="#FFFFFF" stroke="url(#SVGID_3_)" stroke-width="5" stroke-miterlimit="10" cx="68.817" cy="89.166" r="17.067"/>
<linearGradient id="SVGID_4_" gradientUnits="userSpaceOnUse" x1="30.1631" y1="135.4131" x2="107.4697" y2="135.4131">
	<stop  offset="0" style="stop-color:#A43788"/>
	<stop  offset="1" style="stop-color:#3B286B"/>
</linearGradient>
<path fill="#FFFFFF" stroke="url(#SVGID_4_)" stroke-width="5" stroke-miterlimit="10" d="M32.663,154.74
	c0-19.967,16.187-36.153,36.152-36.153c19.969,0,36.154,16.186,36.154,36.153"/>
<g>
	
		<linearGradient id="SVGID_5_" gradientUnits="userSpaceOnUse" x1="104.4609" y1="72.7295" x2="173.2197" y2="72.7295" gradientTransform="matrix(0.7972 0.6036 -0.6036 0.7973 75.9045 -63.166)">
		<stop  offset="0" style="stop-color:#A43788"/>
		<stop  offset="1" style="stop-color:#3B286B"/>
	</linearGradient>
	<path fill="#FFFFFF" stroke="url(#SVGID_5_)" stroke-width="5" stroke-miterlimit="10" d="M102.997,89.077l8.892-9.89
		c-0.919-14.901,8.771-28.578,23.201-32.637c9.694-2.728,19.865-0.801,27.905,5.286c5.578,4.223,9.531,10.025,11.431,16.779
		c4.762,16.928-5.136,34.576-22.063,39.338c-9.693,2.726-19.86,0.8-27.898-5.286c-0.001,0-0.001,0-0.002-0.001
		c-3.616-2.738-6.543-6.129-8.705-10.086L102.997,89.077z"/>
</g>
</svg>
