<?xml version="1.0" encoding="utf-8"?>
<!-- Generator: Adobe Illustrator 16.0.0, SVG Export Plug-In . SVG Version: 6.00 Build 0)  -->
<!DOCTYPE svg PUBLIC "-//W3C//DTD SVG 1.1//EN" "http://www.w3.org/Graphics/SVG/1.1/DTD/svg11.dtd">
<svg version="1.1" id="Layer_1" xmlns="http://www.w3.org/2000/svg" xmlns:xlink="http://www.w3.org/1999/xlink" x="0px" y="0px"
	 width="200px" height="200px" viewBox="0 0 200 200" enable-background="new 0 0 200 200" xml:space="preserve">
<linearGradient id="SVGID_1_" gradientUnits="userSpaceOnUse" x1="14.0068" y1="13.5947" x2="185.9932" y2="13.5947">
	<stop  offset="0" style="stop-color:#A43788"/>
	<stop  offset="1" style="stop-color:#3B286B"/>
</linearGradient>
<rect x="14.007" y="11.003" fill="url(#SVGID_1_)" width="171.986" height="5.182"/>
<linearGradient id="SVGID_2_" gradientUnits="userSpaceOnUse" x1="14.0068" y1="185.4033" x2="185.9932" y2="185.4033">
	<stop  offset="0" style="stop-color:#A43788"/>
	<stop  offset="1" style="stop-color:#3B286B"/>
</linearGradient>
<rect x="14.007" y="182.812" fill="url(#SVGID_2_)" width="171.986" height="5.182"/>
<linearGradient id="SVGID_3_" gradientUnits="userSpaceOnUse" x1="35.6973" y1="48.6489" x2="64.2959" y2="48.6489">
	<stop  offset="0" style="stop-color:#A43788"/>
	<stop  offset="1" style="stop-color:#3B286B"/>
</linearGradient>
<circle fill="none" stroke="url(#SVGID_3_)" stroke-width="5" stroke-miterlimit="10" cx="49.997" cy="48.649" r="11.799"/>
<linearGradient id="SVGID_4_" gradientUnits="userSpaceOnUse" x1="22.5" y1="80.2388" x2="77.4922" y2="80.2388">
	<stop  offset="0" style="stop-color:#A43788"/>
	<stop  offset="1" style="stop-color:#3B286B"/>
</linearGradient>
<path fill="#FFFFFF" stroke="url(#SVGID_4_)" stroke-width="5" stroke-miterlimit="10" d="M25,93.987
	C25,80.182,36.19,68.99,49.995,68.99c13.806,0,24.997,11.191,24.997,24.997"/>
<linearGradient id="SVGID_5_" gradientUnits="userSpaceOnUse" x1="85.6895" y1="48.6489" x2="114.2891" y2="48.6489">
	<stop  offset="0" style="stop-color:#A43788"/>
	<stop  offset="1" style="stop-color:#3B286B"/>
</linearGradient>
<circle fill="#FFFFFF" stroke="url(#SVGID_5_)" stroke-width="5" stroke-miterlimit="10" cx="99.989" cy="48.649" r="11.8"/>
<linearGradient id="SVGID_6_" gradientUnits="userSpaceOnUse" x1="72.4922" y1="80.2393" x2="127.4863" y2="80.2393">
	<stop  offset="0" style="stop-color:#A43788"/>
	<stop  offset="1" style="stop-color:#3B286B"/>
</linearGradient>
<path fill="#FFFFFF" stroke="url(#SVGID_6_)" stroke-width="5" stroke-miterlimit="10" d="M74.992,93.987
	c0-13.806,11.191-24.997,24.996-24.997c13.807,0,24.998,11.191,24.998,24.997"/>
<linearGradient id="SVGID_7_" gradientUnits="userSpaceOnUse" x1="135.6826" y1="48.6489" x2="164.2822" y2="48.6489">
	<stop  offset="0" style="stop-color:#A43788"/>
	<stop  offset="1" style="stop-color:#3B286B"/>
</linearGradient>
<circle fill="#FFFFFF" stroke="url(#SVGID_7_)" stroke-width="5" stroke-miterlimit="10" cx="149.982" cy="48.649" r="11.8"/>
<linearGradient id="SVGID_8_" gradientUnits="userSpaceOnUse" x1="122.4863" y1="80.2393" x2="177.4785" y2="80.2393">
	<stop  offset="0" style="stop-color:#A43788"/>
	<stop  offset="1" style="stop-color:#3B286B"/>
</linearGradient>
<path fill="#FFFFFF" stroke="url(#SVGID_8_)" stroke-width="5" stroke-miterlimit="10" d="M124.986,93.987
	c0-13.805,11.191-24.997,24.996-24.997c13.806,0,24.996,11.191,24.996,24.997"/>
<g>
	<linearGradient id="SVGID_9_" gradientUnits="userSpaceOnUse" x1="35.6973" y1="116.417" x2="64.2959" y2="116.417">
		<stop  offset="0" style="stop-color:#A43788"/>
		<stop  offset="1" style="stop-color:#3B286B"/>
	</linearGradient>
	<circle fill="#FFFFFF" stroke="url(#SVGID_9_)" stroke-width="5" stroke-miterlimit="10" cx="49.997" cy="116.417" r="11.799"/>
	<linearGradient id="SVGID_10_" gradientUnits="userSpaceOnUse" x1="22.5" y1="148.0068" x2="77.4922" y2="148.0068">
		<stop  offset="0" style="stop-color:#A43788"/>
		<stop  offset="1" style="stop-color:#3B286B"/>
	</linearGradient>
	<path fill="#FFFFFF" stroke="url(#SVGID_10_)" stroke-width="5" stroke-miterlimit="10" d="M25,161.755
		c0-13.806,11.19-24.997,24.995-24.997c13.806,0,24.997,11.191,24.997,24.997"/>
	<linearGradient id="SVGID_11_" gradientUnits="userSpaceOnUse" x1="85.6895" y1="116.417" x2="114.2891" y2="116.417">
		<stop  offset="0" style="stop-color:#A43788"/>
		<stop  offset="1" style="stop-color:#3B286B"/>
	</linearGradient>
	<circle fill="#FFFFFF" stroke="url(#SVGID_11_)" stroke-width="5" stroke-miterlimit="10" cx="99.989" cy="116.417" r="11.8"/>
	<linearGradient id="SVGID_12_" gradientUnits="userSpaceOnUse" x1="72.4922" y1="148.0068" x2="127.4863" y2="148.0068">
		<stop  offset="0" style="stop-color:#A43788"/>
		<stop  offset="1" style="stop-color:#3B286B"/>
	</linearGradient>
	<path fill="#FFFFFF" stroke="url(#SVGID_12_)" stroke-width="5" stroke-miterlimit="10" d="M74.992,161.755
		c0-13.806,11.191-24.997,24.996-24.997c13.807,0,24.998,11.191,24.998,24.997"/>
	<linearGradient id="SVGID_13_" gradientUnits="userSpaceOnUse" x1="135.6826" y1="116.417" x2="164.2822" y2="116.417">
		<stop  offset="0" style="stop-color:#A43788"/>
		<stop  offset="1" style="stop-color:#3B286B"/>
	</linearGradient>
	<circle fill="#FFFFFF" stroke="url(#SVGID_13_)" stroke-width="5" stroke-miterlimit="10" cx="149.982" cy="116.417" r="11.8"/>
	<linearGradient id="SVGID_14_" gradientUnits="userSpaceOnUse" x1="122.4863" y1="148.0068" x2="177.4785" y2="148.0068">
		<stop  offset="0" style="stop-color:#A43788"/>
		<stop  offset="1" style="stop-color:#3B286B"/>
	</linearGradient>
	<path fill="#FFFFFF" stroke="url(#SVGID_14_)" stroke-width="5" stroke-miterlimit="10" d="M124.986,161.755
		c0-13.805,11.191-24.997,24.996-24.997c13.806,0,24.996,11.191,24.996,24.997"/>
</g>
</svg>
