<?xml version="1.0" encoding="utf-8"?>
<!-- Generator: Adobe Illustrator 16.0.0, SVG Export Plug-In . SVG Version: 6.00 Build 0)  -->
<!DOCTYPE svg PUBLIC "-//W3C//DTD SVG 1.1//EN" "http://www.w3.org/Graphics/SVG/1.1/DTD/svg11.dtd">
<svg version="1.1" id="Layer_1" xmlns="http://www.w3.org/2000/svg" xmlns:xlink="http://www.w3.org/1999/xlink" x="0px" y="0px"
	 width="200px" height="200px" viewBox="0 0 200 200" enable-background="new 0 0 200 200" xml:space="preserve">
<linearGradient id="SVGID_1_" gradientUnits="userSpaceOnUse" x1="14.0068" y1="13.5947" x2="185.9932" y2="13.5947">
	<stop  offset="0" style="stop-color:#A43788"/>
	<stop  offset="1" style="stop-color:#3B286B"/>
</linearGradient>
<rect x="14.007" y="11.003" fill="url(#SVGID_1_)" width="171.986" height="5.182"/>
<linearGradient id="SVGID_2_" gradientUnits="userSpaceOnUse" x1="14.0068" y1="185.4033" x2="185.9932" y2="185.4033">
	<stop  offset="0" style="stop-color:#A43788"/>
	<stop  offset="1" style="stop-color:#3B286B"/>
</linearGradient>
<rect x="14.007" y="182.812" fill="url(#SVGID_2_)" width="171.986" height="5.182"/>
<g>
	<linearGradient id="SVGID_3_" gradientUnits="userSpaceOnUse" x1="36.2402" y1="82.3774" x2="64.8389" y2="82.3774">
		<stop  offset="0" style="stop-color:#A43788"/>
		<stop  offset="1" style="stop-color:#3B286B"/>
	</linearGradient>
	<circle fill="#FFFFFF" stroke="url(#SVGID_3_)" stroke-width="5" stroke-miterlimit="10" cx="50.54" cy="82.378" r="11.799"/>
	<linearGradient id="SVGID_4_" gradientUnits="userSpaceOnUse" x1="23.043" y1="113.9673" x2="78.0352" y2="113.9673">
		<stop  offset="0" style="stop-color:#A43788"/>
		<stop  offset="1" style="stop-color:#3B286B"/>
	</linearGradient>
	<path fill="#FFFFFF" stroke="url(#SVGID_4_)" stroke-width="5" stroke-miterlimit="10" d="M25.543,127.716
		c0-13.806,11.19-24.997,24.995-24.997c13.806,0,24.997,11.191,24.997,24.997"/>
	<linearGradient id="SVGID_5_" gradientUnits="userSpaceOnUse" x1="86.2324" y1="82.3774" x2="114.832" y2="82.3774">
		<stop  offset="0" style="stop-color:#A43788"/>
		<stop  offset="1" style="stop-color:#3B286B"/>
	</linearGradient>
	<circle fill="#FFFFFF" stroke="url(#SVGID_5_)" stroke-width="5" stroke-miterlimit="10" cx="100.532" cy="82.378" r="11.8"/>
	<linearGradient id="SVGID_6_" gradientUnits="userSpaceOnUse" x1="73.0352" y1="113.9678" x2="128.0293" y2="113.9678">
		<stop  offset="0" style="stop-color:#A43788"/>
		<stop  offset="1" style="stop-color:#3B286B"/>
	</linearGradient>
	<path fill="#FFFFFF" stroke="url(#SVGID_6_)" stroke-width="5" stroke-miterlimit="10" d="M75.535,127.716
		c0-13.806,11.191-24.997,24.996-24.997c13.807,0,24.998,11.191,24.998,24.997"/>
	<linearGradient id="SVGID_7_" gradientUnits="userSpaceOnUse" x1="136.2256" y1="82.3774" x2="164.8252" y2="82.3774">
		<stop  offset="0" style="stop-color:#A43788"/>
		<stop  offset="1" style="stop-color:#3B286B"/>
	</linearGradient>
	<circle fill="#FFFFFF" stroke="url(#SVGID_7_)" stroke-width="5" stroke-miterlimit="10" cx="150.525" cy="82.378" r="11.8"/>
	<linearGradient id="SVGID_8_" gradientUnits="userSpaceOnUse" x1="123.0293" y1="113.9678" x2="178.0215" y2="113.9678">
		<stop  offset="0" style="stop-color:#A43788"/>
		<stop  offset="1" style="stop-color:#3B286B"/>
	</linearGradient>
	<path fill="#FFFFFF" stroke="url(#SVGID_8_)" stroke-width="5" stroke-miterlimit="10" d="M125.529,127.716
		c0-13.805,11.191-24.997,24.996-24.997c13.806,0,24.996,11.191,24.996,24.997"/>
</g>
</svg>
