<?xml version="1.0" encoding="utf-8"?>
<!-- Generator: Adobe Illustrator 16.0.0, SVG Export Plug-In . SVG Version: 6.00 Build 0)  -->
<!DOCTYPE svg PUBLIC "-//W3C//DTD SVG 1.1//EN" "http://www.w3.org/Graphics/SVG/1.1/DTD/svg11.dtd">
<svg version="1.1" id="Layer_1" xmlns="http://www.w3.org/2000/svg" xmlns:xlink="http://www.w3.org/1999/xlink" x="0px" y="0px"
	 width="200px" height="200px" viewBox="0 0 200 200" enable-background="new 0 0 200 200" xml:space="preserve">
<linearGradient id="SVGID_1_" gradientUnits="userSpaceOnUse" x1="81.5449" y1="113.7261" x2="116.1934" y2="113.7261">
	<stop  offset="0" style="stop-color:#A43788"/>
	<stop  offset="1" style="stop-color:#3B286B"/>
</linearGradient>
<circle fill="#FFFFFF" stroke="url(#SVGID_1_)" stroke-width="5" stroke-miterlimit="10" cx="98.869" cy="113.727" r="14.824"/>
<linearGradient id="SVGID_2_" gradientUnits="userSpaceOnUse" x1="64.9688" y1="156.2339" x2="132.7715" y2="156.2339">
	<stop  offset="0" style="stop-color:#A43788"/>
	<stop  offset="1" style="stop-color:#3B286B"/>
</linearGradient>
<path fill="#FFFFFF" stroke="url(#SVGID_2_)" stroke-width="5" stroke-miterlimit="10" d="M67.469,170.686
	c0-17.344,14.057-31.404,31.401-31.403c17.344,0,31.401,14.06,31.401,31.403"/>
<linearGradient id="SVGID_3_" gradientUnits="userSpaceOnUse" x1="13.7637" y1="13.5947" x2="185.75" y2="13.5947">
	<stop  offset="0" style="stop-color:#A43788"/>
	<stop  offset="1" style="stop-color:#3B286B"/>
</linearGradient>
<rect x="13.764" y="11.003" fill="url(#SVGID_3_)" width="171.986" height="5.182"/>
<linearGradient id="SVGID_4_" gradientUnits="userSpaceOnUse" x1="13.7637" y1="185.4033" x2="185.75" y2="185.4033">
	<stop  offset="0" style="stop-color:#A43788"/>
	<stop  offset="1" style="stop-color:#3B286B"/>
</linearGradient>
<rect x="13.764" y="182.812" fill="url(#SVGID_4_)" width="171.986" height="5.182"/>
<linearGradient id="SVGID_5_" gradientUnits="userSpaceOnUse" x1="80.8369" y1="67.3418" x2="116.4863" y2="67.3418">
	<stop  offset="0" style="stop-color:#A43788"/>
	<stop  offset="1" style="stop-color:#3B286B"/>
</linearGradient>
<path fill="#FFFFFF" stroke="url(#SVGID_5_)" stroke-width="5" stroke-miterlimit="10" d="M105.578,88.947V77.241
	c4.988-2.527,8.408-7.701,8.408-13.677c0-8.466-6.859-15.327-15.322-15.327c-8.465,0-15.327,6.862-15.327,15.327
	c0,5.976,3.424,11.149,8.414,13.677v11.706"/>
<linearGradient id="SVGID_6_" gradientUnits="userSpaceOnUse" x1="96.1631" y1="32.6318" x2="101.1631" y2="32.6318">
	<stop  offset="0" style="stop-color:#A43788"/>
	<stop  offset="1" style="stop-color:#3B286B"/>
</linearGradient>
<line fill="none" stroke="url(#SVGID_6_)" stroke-width="5" stroke-linecap="round" stroke-miterlimit="10" x1="98.663" y1="28.808" x2="98.663" y2="36.457"/>
<linearGradient id="SVGID_7_" gradientUnits="userSpaceOnUse" x1="122.2842" y1="62.5195" x2="134.2402" y2="62.5195">
	<stop  offset="0" style="stop-color:#A43788"/>
	<stop  offset="1" style="stop-color:#3B286B"/>
</linearGradient>
<line fill="none" stroke="url(#SVGID_7_)" stroke-width="5" stroke-linecap="round" stroke-miterlimit="10" x1="124.784" y1="62.52" x2="131.74" y2="62.52"/>
<linearGradient id="SVGID_8_" gradientUnits="userSpaceOnUse" x1="126.1719" y1="56.5088" x2="138.1279" y2="56.5088" gradientTransform="matrix(0.7071 -0.7071 0.7071 0.7071 -14.7904 94.7522)">
	<stop  offset="0" style="stop-color:#A43788"/>
	<stop  offset="1" style="stop-color:#3B286B"/>
</linearGradient>
<line fill="none" stroke="url(#SVGID_8_)" stroke-width="5" stroke-linecap="round" stroke-miterlimit="10" x1="116.151" y1="43.726" x2="121.07" y2="38.808"/>
<linearGradient id="SVGID_9_" gradientUnits="userSpaceOnUse" x1="103.7461" y1="34.082" x2="115.7012" y2="34.082" gradientTransform="matrix(-0.7071 -0.7071 -0.7071 0.7071 180.0736 94.7522)">
	<stop  offset="0" style="stop-color:#A43788"/>
	<stop  offset="1" style="stop-color:#3B286B"/>
</linearGradient>
<line fill="none" stroke="url(#SVGID_9_)" stroke-width="5" stroke-linecap="round" stroke-miterlimit="10" x1="80.848" y1="43.726" x2="75.93" y2="38.808"/>
<linearGradient id="SVGID_10_" gradientUnits="userSpaceOnUse" x1="63.6606" y1="62.5195" x2="75.6162" y2="62.5195">
	<stop  offset="0" style="stop-color:#A43788"/>
	<stop  offset="1" style="stop-color:#3B286B"/>
</linearGradient>
<line fill="none" stroke="url(#SVGID_10_)" stroke-width="5" stroke-linecap="round" stroke-miterlimit="10" x1="66.161" y1="62.52" x2="73.116" y2="62.52"/>
</svg>
